# xmcd
#
# Track frame offsets:
#	150
#	17220
#	35065
#	54116
#	73736
#	87884
#	103847
#	123463
#	140484
#	160120
#	179161
#	194644
#
# Disc length: 2833 seconds
#
# Revision: 0
# Processed by: cddbd v1.5.1PL2 Copyright (c) Steve Scherf et al.
# Submitted via: dBpowerAMP V4.0
#
DISCID=b00b0f0c
DTITLE=เดวิท - มือใหม่หัดรัก
DYEAR=2005
DGENRE=Country
TTITLE0=ตั้งใจมาหลอก
TTITLE1=มือใหม่หัดรัก
TTITLE2=ทนเหงาทำไม
TTITLE3=จดหมายพ่ายอีเมล์
TTITLE4='นหรือยัง?
TTITLE5=น้อยใจ
TTITLE6=คิดถึงทุกวัน
TTITLE7=หัวใจหน้าแล้ง
TTITLE8=คิดถึงบ้านนา
TTITLE9=ฝากแฟนผมด้วย
TTITLE10=รักเข้าตา
TTITLE11=คนนี้คนเดียว
EXTD=
EXTT0=
EXTT1=
EXTT2=
EXTT3=
EXTT4=
EXTT5=
EXTT6=
EXTT7=
EXTT8=
EXTT9=
EXTT10=
EXTT11=
PLAYORDER=
